# xmcd CD database file
#
# Track frame offsets:
#	187
#	13660
#	30920
#
# Disc length: 590 seconds
#
# Revision: 0
# Processed by: cddbd v1.5.1PL0 Copyright (c) Steve Scherf et al.
# Submitted via: CDex 1.60beta1
#
DISCID=14024c03
DTITLE=少年ナイフ - バナナチップス
DYEAR=1998
DGENRE=Rock
TTITLE0=バナナチップス
TTITLE1=DOLLY
TTITLE2=バナナチップス (カラオケ)
EXTD=YEAR: 1998
EXTT0=
EXTT1=
EXTT2=
PLAYORDER=
